<svg width="200" height="37" viewBox="0 0 200 37" fill="none" xmlns="http://www.w3.org/2000/svg">
<g clip-path="url(#clip0_37_53)">
<path d="M112.252 27.0878H116.53V10.9515H112.252V27.0878ZM112.252 8.43514H116.53V4.59766H112.252V8.43514Z" fill="#8D95A8"/>
<path d="M119.287 32.3689H123.565V25.2601H123.627C124.539 26.6441 126.018 27.5563 128.283 27.5563C132.435 27.5563 135.266 24.2536 135.266 19.0321C135.266 13.9993 132.529 10.5078 128.251 10.5078C126.05 10.5078 124.539 11.5459 123.502 12.9613H123.407V10.9482H119.287V32.3689ZM127.371 24.0019C124.823 24.0019 123.471 22.0832 123.471 19.1579C123.471 16.2641 124.539 13.9679 127.214 13.9679C129.856 13.9679 130.925 16.1068 130.925 19.1579C130.925 22.209 129.541 24.0019 127.371 24.0019Z" fill="#8D95A8"/>
<path d="M143.799 27.5563C147.826 27.5563 150.594 25.6062 150.594 22.3663C150.594 18.5918 147.606 17.8368 144.9 17.2707C142.604 16.7988 140.465 16.673 140.465 15.289C140.465 14.1252 141.566 13.4961 143.233 13.4961C145.058 13.4961 146.159 14.1252 146.347 15.8552H150.216C149.902 12.6153 147.542 10.5078 143.296 10.5078C139.616 10.5078 136.722 12.175 136.722 15.6664C136.722 19.1894 139.553 19.9757 142.447 20.5419C144.649 20.9823 146.693 21.1396 146.693 22.6808C146.693 23.8132 145.624 24.5367 143.737 24.5367C141.817 24.5367 140.496 23.7188 140.214 21.863H136.25C136.502 25.2916 139.113 27.5563 143.799 27.5563Z" fill="#8D95A8"/>
<path d="M166.835 27.0855V10.9492H162.557V20.2599C162.557 22.3988 161.33 23.9086 159.317 23.9086C157.493 23.9086 156.644 22.8706 156.644 20.9833V10.9492H152.397V21.7067C152.397 25.2297 154.41 27.5259 157.996 27.5259C160.261 27.5259 161.519 26.6766 162.62 25.1983H162.715V27.0855H166.835Z" fill="#8D95A8"/>
<path d="M169.602 27.0845H173.88V17.711C173.88 15.572 175.044 14.1881 176.774 14.1881C178.347 14.1881 179.259 15.1317 179.259 16.9561V27.0845H183.537V17.711C183.537 15.572 184.638 14.1881 186.43 14.1881C188.004 14.1881 188.916 15.1317 188.916 16.9561V27.0845H193.194V16.2326C193.194 12.7096 191.274 10.5078 187.877 10.5078C185.833 10.5078 184.134 11.5773 183.033 13.3387H182.971C182.184 11.6402 180.549 10.5078 178.504 10.5078C176.271 10.5078 174.698 11.6402 173.817 13.1185H173.723V10.9482H169.602V27.0845Z" fill="#8D95A8"/>
<path d="M0.756104 27.0878H5.03395V4.59766H0.756104V27.0878Z" fill="#8D95A8"/>
<path d="M15.494 27.5563C20.4952 27.5563 23.9238 23.8447 23.9238 19.0321C23.9238 14.2195 20.4952 10.5078 15.494 10.5078C10.4926 10.5078 7.06403 14.2195 7.06403 19.0321C7.06403 23.8447 10.4926 27.5563 15.494 27.5563ZM15.494 24.2851C12.8517 24.2851 11.4048 22.1775 11.4048 19.0321C11.4048 15.8866 12.8517 13.7477 15.494 13.7477C18.1047 13.7477 19.583 15.8866 19.583 19.0321C19.583 22.1775 18.1047 24.2851 15.494 24.2851Z" fill="#8D95A8"/>
<path d="M33.0211 32.5891C35.4117 32.5891 37.4877 32.0229 38.8402 30.7647C40.0355 29.6638 40.759 28.1225 40.759 25.8578V10.9482H36.6385V12.6468H36.5755C35.6004 11.2942 34.122 10.5078 32.1089 10.5078C28.0198 10.5078 25.126 13.5904 25.126 18.4029C25.126 23.2785 28.6489 26.1094 32.2348 26.1094C34.2793 26.1094 35.5061 25.2916 36.4496 24.2221H36.5441V25.9836C36.5441 28.1854 35.3802 29.3493 32.9582 29.3493C30.9765 29.3493 30.0643 28.5629 29.7184 27.5563H25.4719C25.9123 30.7018 28.6174 32.5891 33.0211 32.5891ZM32.9582 22.6808C30.7563 22.6808 29.3095 21.0766 29.3095 18.3401C29.3095 15.635 30.7563 13.9364 32.9267 13.9364C35.5061 13.9364 36.7642 15.9496 36.7642 18.3086C36.7642 20.6992 35.6633 22.6808 32.9582 22.6808Z" fill="#8D95A8"/>
<path d="M51.157 27.5563C56.1582 27.5563 59.5869 23.8447 59.5869 19.0321C59.5869 14.2195 56.1582 10.5078 51.157 10.5078C46.1557 10.5078 42.7271 14.2195 42.7271 19.0321C42.7271 23.8447 46.1557 27.5563 51.157 27.5563ZM51.157 24.2851C48.5148 24.2851 47.0679 22.1775 47.0679 19.0321C47.0679 15.8866 48.5148 13.7477 51.157 13.7477C53.7677 13.7477 55.2461 15.8866 55.2461 19.0321C55.2461 22.1775 53.7677 24.2851 51.157 24.2851Z" fill="#8D95A8"/>
<path d="M194.748 8.2989C194.748 7.57506 195.335 6.98828 196.059 6.98828H198.68C199.404 6.98828 199.991 7.57506 199.991 8.2989C199.991 9.02273 199.404 9.60952 198.68 9.60952H196.059C195.335 9.60952 194.748 9.02273 194.748 8.2989Z" fill="#8D95A8"/>
<path fill-rule="evenodd" clip-rule="evenodd" d="M85.53 0C95.6633 0 103.879 8.21496 103.879 18.3486C103.879 28.4823 95.6633 36.6972 85.53 36.6972C75.3964 36.6972 67.1814 28.4823 67.1814 18.3486C67.1814 8.21496 75.3964 0 85.53 0ZM84.8668 1.37302C82.7735 1.66761 80.7803 3.34961 79.233 6.16275C78.7842 6.97874 78.3793 7.88024 78.0264 8.85361C80.1303 8.32493 82.4414 8.01323 84.8668 7.96502V1.37302ZM76.4756 9.29431C76.9145 7.91705 77.4513 6.64991 78.0708 5.52353C78.8378 4.12898 79.7481 2.92472 80.7737 1.99979C75.1967 3.61948 70.8008 8.0154 69.1811 13.5924C70.1061 12.5668 71.3103 11.6565 72.7049 10.8895C73.8313 10.27 75.0984 9.73312 76.4756 9.29431ZM76.035 10.845C75.5063 12.9489 75.1946 15.26 75.1464 17.6854H68.5543C68.8489 15.5921 70.5309 13.5989 73.3441 12.0517C74.1601 11.6029 75.0616 11.198 76.035 10.845ZM76.473 17.6854C76.5278 15.0385 76.9089 12.5536 77.5394 10.358C79.735 9.72752 82.2199 9.34642 84.8668 9.29165V12.1567C83.8794 14.6846 81.8654 16.6983 79.3375 17.6854H76.473ZM75.1464 19.0118H68.5543C68.8489 21.1051 70.5309 23.0983 73.3441 24.6455C74.1601 25.0943 75.0616 25.4993 76.035 25.8522C75.5063 23.7483 75.1946 21.4372 75.1464 19.0118ZM77.5394 26.3393C76.9089 24.1437 76.5278 21.6587 76.473 19.0118H79.3375C81.8654 19.9989 83.8794 22.0127 84.8668 24.5406V27.4056C82.2199 27.3508 79.735 26.9697 77.5394 26.3393ZM76.4756 27.4029C75.0984 26.9641 73.8313 26.4272 72.7049 25.8077C71.3103 25.0407 70.1061 24.1305 69.1811 23.1049C70.8008 28.6818 75.1967 33.0778 80.7737 34.6974C79.7481 33.7725 78.8378 32.5683 78.0708 31.1737C77.4513 30.0473 76.9145 28.7802 76.4756 27.4029ZM84.8668 35.3242C82.7735 35.0296 80.7803 33.3476 79.233 30.5345C78.7842 29.7185 78.3793 28.817 78.0264 27.8437C80.1303 28.3723 82.4414 28.684 84.8668 28.7322V35.3242ZM90.2863 34.6974C91.3119 33.7725 92.222 32.5683 92.989 31.1737C93.6083 30.0473 94.1459 28.7802 94.5844 27.4029C95.9615 26.9641 97.2285 26.4272 98.3551 25.8077C99.7496 25.0407 100.954 24.1305 101.879 23.1049C100.259 28.6818 95.8633 33.0778 90.2863 34.6974ZM93.034 27.8437C92.6808 28.817 92.2753 29.7185 91.8266 30.5345C90.2797 33.3476 88.2864 35.0296 86.1931 35.3242V28.7322C88.6186 28.684 90.9297 28.3723 93.034 27.8437ZM95.0248 25.8522C95.9982 25.4993 96.9 25.0943 97.7156 24.6455C100.529 23.0983 102.211 21.1051 102.506 19.0118H95.9138C95.8652 21.4372 95.5532 23.7483 95.0248 25.8522ZM94.5872 19.0118C94.5321 21.6587 94.1514 24.1437 93.5202 26.3393C91.325 26.9697 88.84 27.3508 86.1931 27.4056V24.5427C87.1803 22.0139 89.1947 19.9992 91.7233 19.0118H94.5872ZM95.9138 17.6854H102.506C102.211 15.5921 100.529 13.5989 97.7156 12.0517C96.9 11.6029 95.9982 11.198 95.0248 10.845C95.5532 12.9489 95.8652 15.26 95.9138 17.6854ZM93.5202 10.358C94.1514 12.5536 94.5321 15.0385 94.5872 17.6854H91.7234C89.1947 16.6981 87.1803 14.6834 86.1931 12.1546V9.29165C88.84 9.34642 91.325 9.72752 93.5202 10.358ZM94.5844 9.29431C95.9615 9.73312 97.2285 10.27 98.3551 10.8895C99.7496 11.6565 100.954 12.5668 101.879 13.5924C100.259 8.0154 95.8633 3.61948 90.2863 1.99979C91.3119 2.92472 92.222 4.12898 92.989 5.52353C93.6083 6.64991 94.1459 7.91705 94.5844 9.29431ZM86.1931 1.37302C88.2864 1.66761 90.2797 3.34961 91.8266 6.16275C92.2753 6.97875 92.6808 7.88024 93.034 8.85361C90.9297 8.32493 88.6186 8.01323 86.1931 7.96502V1.37302Z" fill="#8D95A8"/>
</g>
<defs>
<clipPath id="clip0_37_53">
<rect width="200" height="36.6972" fill="white"/>
</clipPath>
</defs>
</svg>
