<svg width="200" height="45" viewBox="0 0 200 45" fill="none" xmlns="http://www.w3.org/2000/svg">
<path fill-rule="evenodd" clip-rule="evenodd" d="M63.4808 2.93555C63.4808 1.44158 64.7051 0.230469 66.2156 0.230469H70.9797C72.0546 0.230469 73.0964 0.598962 73.9276 1.27322L75.3769 2.44879L75.4131 2.48149C75.4465 2.47033 75.48 2.45943 75.5135 2.44879C78.1281 1.62042 81.3004 1.46288 84.5381 1.46288C87.7759 1.46288 90.9481 1.62042 93.5628 2.44879C93.5963 2.45943 93.6298 2.47033 93.6632 2.48149L93.6994 2.44879L95.1487 1.27322C95.9799 0.598962 97.0217 0.230469 98.0966 0.230469H102.861C104.371 0.230469 105.595 1.44158 105.595 2.93555V4.60778C105.595 5.9016 105.044 7.13557 104.078 8.00696L102.908 9.06072C102.338 9.57515 101.653 9.94953 100.909 10.1536L100.632 10.2295C101.715 12.7864 102.314 15.5195 102.314 17.7305C102.314 26.6245 96.7505 30.4657 91.8486 33.8502C87.9883 36.5156 84.5381 38.8976 84.5381 43.2413C84.5381 38.8976 81.088 36.5156 77.2277 33.8502C72.3258 30.4657 66.7624 26.6245 66.7624 17.7305C66.7624 15.5195 67.3609 12.7864 68.4443 10.2295L68.1677 10.1536C67.4236 9.94953 66.7386 9.57515 66.1678 9.06072L64.9987 8.00696C64.0318 7.13557 63.4808 5.9016 63.4808 4.60778V2.93555ZM88.0933 25.0017C88.0933 25.4266 87.906 25.8341 87.5727 26.1346C87.2393 26.435 86.7872 26.6038 86.3157 26.6038C85.9087 26.6038 85.516 26.4779 85.2018 26.2502C85.7366 27.6663 87.1054 29.0081 89.1872 26.8503C91.025 24.8452 89.1055 20.6163 87.2353 18.1069C86.612 17.2704 85.5887 16.8678 84.5381 16.8678C83.4876 16.8678 82.4643 17.2704 81.8409 18.1069C79.9708 20.6163 78.0513 24.8452 79.8891 26.8503C81.9709 29.0081 83.3397 27.6663 83.8745 26.2502C83.5603 26.4779 83.1676 26.6038 82.7606 26.6038C82.2891 26.6038 81.837 26.435 81.5036 26.1346C81.1703 25.8341 80.983 25.4266 80.983 25.0017H88.0933ZM77.7309 12.4833H72.7789L76.6816 15.5744C77.5404 16.2545 78.7957 16.0371 79.3271 15.1161C79.998 13.9533 79.1069 12.4833 77.7309 12.4833ZM91.3454 12.4833H96.2974L92.3947 15.5744C91.5359 16.2545 90.2806 16.0371 89.7492 15.1161C89.0783 13.9533 89.9694 12.4833 91.3454 12.4833Z" fill="#8D95A8"/>
<path d="M111.495 30.6934H115.882V14.145H111.495V30.6934ZM111.495 11.5644H115.882V7.62891H111.495V11.5644Z" fill="#8D95A8"/>
<path d="M118.709 36.1147H123.096V28.8243H123.16C124.096 30.2437 125.612 31.1792 127.934 31.1792C132.192 31.1792 135.096 27.7921 135.096 22.4372C135.096 17.276 132.289 13.6953 127.902 13.6953C125.644 13.6953 124.096 14.7598 123.031 16.2114H122.934V14.1469H118.709V36.1147ZM126.999 27.534C124.386 27.534 122.999 25.5663 122.999 22.5663C122.999 19.5985 124.096 17.2437 126.838 17.2437C129.547 17.2437 130.644 19.4372 130.644 22.5663C130.644 25.6953 129.225 27.534 126.999 27.534Z" fill="#8D95A8"/>
<path d="M143.847 31.1792C147.976 31.1792 150.815 29.1792 150.815 25.8566C150.815 21.9856 147.751 21.2114 144.976 20.6308C142.621 20.1469 140.428 20.0179 140.428 18.5985C140.428 17.405 141.557 16.7598 143.267 16.7598C145.138 16.7598 146.267 17.405 146.46 19.1792H150.428C150.105 15.8566 147.686 13.6953 143.331 13.6953C139.557 13.6953 136.589 15.405 136.589 18.9856C136.589 22.5985 139.492 23.405 142.46 23.9856C144.718 24.4372 146.815 24.5985 146.815 26.1792C146.815 27.3405 145.718 28.0824 143.783 28.0824C141.815 28.0824 140.46 27.2437 140.17 25.3405H136.105C136.363 28.8566 139.041 31.1792 143.847 31.1792Z" fill="#8D95A8"/>
<path d="M167.472 30.6968V14.1484H163.085V23.6968C163.085 25.8904 161.827 27.4388 159.762 27.4388C157.891 27.4388 157.02 26.3742 157.02 24.4388V14.1484H152.666V25.1807C152.666 28.7936 154.73 31.1484 158.408 31.1484C160.73 31.1484 162.02 30.2775 163.149 28.7613H163.246V30.6968H167.472Z" fill="#8D95A8"/>
<path d="M170.31 30.6953H174.697V21.0824C174.697 18.8889 175.89 17.4695 177.665 17.4695C179.277 17.4695 180.213 18.4372 180.213 20.3082V30.6953H184.6V21.0824C184.6 18.8889 185.729 17.4695 187.568 17.4695C189.181 17.4695 190.116 18.4372 190.116 20.3082V30.6953H194.503V19.5663C194.503 15.9534 192.535 13.6953 189.052 13.6953C186.955 13.6953 185.213 14.7921 184.084 16.5985H184.019C183.213 14.8566 181.536 13.6953 179.439 13.6953C177.148 13.6953 175.536 14.8566 174.632 16.3727H174.535V14.1469H170.31V30.6953Z" fill="#8D95A8"/>
<path d="M0.735596 30.6934H5.12269V7.62891H0.735596V30.6934Z" fill="#8D95A8"/>
<path d="M15.8498 31.1792C20.9788 31.1792 24.495 27.3727 24.495 22.4372C24.495 17.5018 20.9788 13.6953 15.8498 13.6953C10.7207 13.6953 7.20459 17.5018 7.20459 22.4372C7.20459 27.3727 10.7207 31.1792 15.8498 31.1792ZM15.8498 27.8243C13.1401 27.8243 11.6563 25.6631 11.6563 22.4372C11.6563 19.2114 13.1401 17.0179 15.8498 17.0179C18.5272 17.0179 20.0434 19.2114 20.0434 22.4372C20.0434 25.6631 18.5272 27.8243 15.8498 27.8243Z" fill="#8D95A8"/>
<path d="M33.8245 36.3405C36.2761 36.3405 38.4051 35.7598 39.7922 34.4695C41.018 33.3405 41.76 31.7598 41.76 29.4372V14.1469H37.5342V15.8889H37.4697C36.4697 14.5018 34.9535 13.6953 32.889 13.6953C28.6955 13.6953 25.7277 16.8566 25.7277 21.7921C25.7277 26.7921 29.3406 29.6953 33.018 29.6953C35.1148 29.6953 36.3729 28.8566 37.3406 27.7598H37.4374V29.5663C37.4374 31.8243 36.2438 33.0179 33.76 33.0179C31.7277 33.0179 30.7922 32.2114 30.4374 31.1792H26.0826C26.5342 34.405 29.3084 36.3405 33.8245 36.3405ZM33.76 26.1792C31.5019 26.1792 30.018 24.534 30.018 21.7276C30.018 18.9534 31.5019 17.2114 33.7277 17.2114C36.3729 17.2114 37.6632 19.276 37.6632 21.6953C37.6632 24.1469 36.5342 26.1792 33.76 26.1792Z" fill="#8D95A8"/>
<path d="M52.4235 31.1792C57.5526 31.1792 61.0687 27.3727 61.0687 22.4372C61.0687 17.5018 57.5526 13.6953 52.4235 13.6953C47.2945 13.6953 43.7784 17.5018 43.7784 22.4372C43.7784 27.3727 47.2945 31.1792 52.4235 31.1792ZM52.4235 27.8243C49.7139 27.8243 48.23 25.6631 48.23 22.4372C48.23 19.2114 49.7139 17.0179 52.4235 17.0179C55.101 17.0179 56.6171 19.2114 56.6171 22.4372C56.6171 25.6631 55.101 27.8243 52.4235 27.8243Z" fill="#8D95A8"/>
<path d="M194.305 10.5355C194.305 9.79317 194.906 9.19141 195.649 9.19141H198.338C199.08 9.19141 199.682 9.79317 199.682 10.5355C199.682 11.2778 199.08 11.8796 198.338 11.8796H195.649C194.906 11.8796 194.305 11.2778 194.305 10.5355Z" fill="#8D95A8"/>
</svg>
