<svg width="200" height="40" viewBox="0 0 200 40" fill="none" xmlns="http://www.w3.org/2000/svg">
<g clip-path="url(#clip0_19_99)">
<path fill-rule="evenodd" clip-rule="evenodd" d="M25.3027 11.5696C23.6745 10.4817 21.7602 9.90099 19.802 9.90099V0C23.7184 0 27.5469 1.16137 30.8034 3.33724C34.0598 5.5131 36.5978 8.60575 38.0966 12.2241C39.5953 15.8424 39.9875 19.824 39.2235 23.6651C38.4594 27.5063 36.5735 31.0348 33.8041 33.8041C31.0348 36.5735 27.5063 38.4594 23.6652 39.2235C19.824 39.9875 15.8424 39.5953 12.2241 38.0966C8.60574 36.5978 5.5131 34.0598 3.33724 30.8034C1.16137 27.5469 0 23.7184 0 19.802H9.90099C9.90099 21.7602 10.4817 23.6745 11.5696 25.3027C12.6575 26.9309 14.2039 28.1999 16.0131 28.9493C17.8222 29.6987 19.813 29.8948 21.7336 29.5127C23.6542 29.1307 25.4183 28.1877 26.8031 26.8031C28.1877 25.4183 29.1307 23.6542 29.5127 21.7336C29.8948 19.813 29.6987 17.8222 28.9493 16.0131C28.1999 14.2039 26.9309 12.6575 25.3027 11.5696Z" fill="#8D95A8"/>
<path fill-rule="evenodd" clip-rule="evenodd" d="M9.90099 5.2326e-06C9.90099 1.30022 9.6449 2.58771 9.14732 3.78895C8.64975 4.99019 7.92045 6.08167 7.00105 7.00106C6.08167 7.92046 4.99019 8.64976 3.78894 9.14733C2.5877 9.64489 1.30021 9.90099 4.32782e-07 9.90099L0 19.802C2.60043 19.802 5.1754 19.2898 7.5779 18.2947C9.98039 17.2995 12.1634 15.8409 14.0021 14.0021C15.8409 12.1634 17.2995 9.9804 18.2946 7.57789C19.2898 5.1754 19.802 2.60043 19.802 0L9.90099 5.2326e-06Z" fill="#8D95A8"/>
<path d="M124.375 14.3086H119.571V29.5683H124.375V14.3086Z" fill="#8D95A8"/>
<path d="M120.106 11.4511C120.608 11.9534 121.236 12.2046 121.989 12.2046C122.743 12.2046 123.36 11.9534 123.842 11.4511C124.324 10.9278 124.564 10.2998 124.564 9.56716C124.564 8.81362 124.324 8.18562 123.842 7.68326C123.36 7.18087 122.743 6.92969 121.989 6.92969C121.236 6.92969 120.608 7.18087 120.106 7.68326C119.624 8.18562 119.383 8.81362 119.383 9.56716C119.383 10.2998 119.624 10.9278 120.106 11.4511Z" fill="#8D95A8"/>
<path d="M50.6497 29.5698V7.40234H55.5793V25.2368H65.4071V29.5698H50.6497Z" fill="#8D95A8"/>
<path fill-rule="evenodd" clip-rule="evenodd" d="M74.2845 29.9153C72.7146 29.9153 71.2913 29.57 70.0143 28.8792C68.7584 28.1675 67.7641 27.2046 67.0315 25.9905C66.2989 24.7764 65.9326 23.4158 65.9326 21.9087C65.9326 20.4016 66.2989 19.0515 67.0315 17.8583C67.7641 16.6651 68.7584 15.7232 70.0143 15.0325C71.2703 14.3207 72.6937 13.9648 74.2845 13.9648C75.8754 13.9648 77.2988 14.3103 78.5547 15.001C79.8107 15.6918 80.805 16.6442 81.5376 17.8583C82.2703 19.0515 82.6366 20.4016 82.6366 21.9087C82.6366 23.4158 82.2703 24.7764 81.5376 25.9905C80.805 27.2046 79.8107 28.1675 78.5547 28.8792C77.2988 29.57 75.8754 29.9153 74.2845 29.9153ZM74.2845 25.551C74.9753 25.551 75.5824 25.4044 76.1057 25.1114C76.629 24.7974 77.0267 24.3683 77.2988 23.8241C77.5919 23.2589 77.7384 22.6204 77.7384 21.9087C77.7384 21.197 77.5919 20.5795 77.2988 20.0562C77.0057 19.512 76.5976 19.0934 76.0742 18.8003C75.5719 18.4862 74.9753 18.3293 74.2845 18.3293C73.6147 18.3293 73.0182 18.4862 72.4948 18.8003C71.9716 19.0934 71.5633 19.512 71.2703 20.0562C70.9772 20.6005 70.8308 21.2284 70.8308 21.9401C70.8308 22.6309 70.9772 23.2589 71.2703 23.8241C71.5633 24.3683 71.9716 24.7974 72.4948 25.1114C73.0182 25.4044 73.6147 25.551 74.2845 25.551Z" fill="#8D95A8"/>
<path fill-rule="evenodd" clip-rule="evenodd" d="M86.4413 35.5356C87.7181 36.1216 89.1938 36.4147 90.8685 36.4147C92.5012 36.4147 93.956 36.0902 95.2329 35.4413C96.5098 34.7924 97.5144 33.8924 98.2471 32.7411C98.9797 31.5899 99.3465 30.2293 99.3465 28.6593V14.3102H94.6362V15.3354C94.2859 15.0405 93.8881 14.793 93.4432 14.5927C92.6267 14.195 91.6952 13.9961 90.6487 13.9961C89.2462 13.9961 88.0007 14.331 86.9123 15.0008C85.8237 15.6498 84.9655 16.5499 84.3375 17.7011C83.7095 18.8315 83.3956 20.1084 83.3956 21.5318C83.3956 22.9343 83.7095 24.2111 84.3375 25.3624C84.9655 26.5137 85.8237 27.4243 86.9123 28.0941C88.0007 28.7639 89.2462 29.0989 90.6487 29.0989C91.6743 29.0989 92.6058 28.9001 93.4432 28.5023C93.8487 28.3097 94.215 28.0826 94.5421 27.8211V28.7849C94.5421 29.8524 94.1967 30.6793 93.5059 31.2654C92.8361 31.8515 91.9046 32.1445 90.7115 32.1445C89.7486 32.1445 88.9218 31.9771 88.231 31.6421C87.5612 31.3073 86.954 30.8153 86.4098 30.1664L83.4584 33.1179C84.191 34.1645 85.1853 34.9705 86.4413 35.5356ZM93.2861 24.3891C92.8046 24.6821 92.2291 24.8287 91.5592 24.8287C90.8894 24.8287 90.3033 24.6821 89.8009 24.3891C89.3194 24.096 88.9427 23.6983 88.6706 23.1959C88.3984 22.6726 88.2624 22.1179 88.2624 21.5318C88.2624 20.9038 88.3984 20.3387 88.6706 19.8363C88.9427 19.3339 89.3299 18.9362 89.8323 18.6431C90.3346 18.3501 90.9103 18.2035 91.5592 18.2035C92.2291 18.2035 92.8046 18.3501 93.2861 18.6431C93.7885 18.9362 94.1652 19.3339 94.4165 19.8363C94.6886 20.3387 94.8246 20.9038 94.8246 21.5318C94.8246 22.1598 94.6886 22.7249 94.4165 23.2273C94.1652 23.7088 93.7885 24.096 93.2861 24.3891Z" fill="#8D95A8"/>
<path fill-rule="evenodd" clip-rule="evenodd" d="M109.456 29.9153C107.886 29.9153 106.462 29.57 105.186 28.8792C103.93 28.1675 102.936 27.2046 102.203 25.9905C101.47 24.7764 101.104 23.4158 101.104 21.9087C101.104 20.4016 101.47 19.0515 102.203 17.8583C102.936 16.6651 103.93 15.7232 105.186 15.0325C106.442 14.3207 107.865 13.9648 109.456 13.9648C111.047 13.9648 112.47 14.3103 113.726 15.001C114.982 15.6918 115.976 16.6442 116.709 17.8583C117.442 19.0515 117.808 20.4016 117.808 21.9087C117.808 23.4158 117.442 24.7764 116.709 25.9905C115.976 27.2046 114.982 28.1675 113.726 28.8792C112.47 29.57 111.047 29.9153 109.456 29.9153ZM109.456 25.551C110.147 25.551 110.753 25.4044 111.277 25.1114C111.8 24.7974 112.198 24.3683 112.47 23.8241C112.763 23.2589 112.91 22.6204 112.91 21.9087C112.91 21.197 112.763 20.5795 112.47 20.0562C112.177 19.512 111.769 19.0934 111.246 18.8003C110.744 18.4862 110.147 18.3293 109.456 18.3293C108.786 18.3293 108.189 18.4862 107.666 18.8003C107.143 19.0934 106.735 19.512 106.442 20.0562C106.148 20.6005 106.002 21.2284 106.002 21.9401C106.002 22.6309 106.148 23.2589 106.442 23.8241C106.735 24.3683 107.143 24.7974 107.666 25.1114C108.189 25.4044 108.786 25.551 109.456 25.551Z" fill="#8D95A8"/>
<path fill-rule="evenodd" clip-rule="evenodd" d="M135.922 29.8838C134.897 29.8838 133.954 29.685 133.096 29.2873C132.645 29.078 132.237 28.8281 131.872 28.5376V36.0066H127.131V14.3102H131.935V15.3633C132.283 15.0783 132.67 14.8318 133.096 14.6241C133.954 14.2054 134.897 13.9961 135.922 13.9961C137.366 13.9961 138.644 14.3415 139.752 15.0323C140.883 15.723 141.762 16.665 142.39 17.8582C143.04 19.0513 143.363 20.4119 143.363 21.94C143.363 23.4681 143.04 24.8287 142.39 26.0218C141.762 27.215 140.883 28.1569 139.752 28.8477C138.644 29.5385 137.366 29.8838 135.922 29.8838ZM135.044 25.5508C135.734 25.5508 136.331 25.3938 136.833 25.0799C137.356 24.7659 137.764 24.3367 138.057 23.7925C138.35 23.2483 138.497 22.6307 138.497 21.94C138.497 21.2283 138.35 20.6004 138.057 20.0561C137.764 19.5118 137.356 19.0932 136.833 18.8002C136.331 18.4861 135.745 18.3292 135.074 18.3292C134.405 18.3292 133.808 18.4861 133.285 18.8002C132.782 19.0932 132.385 19.5118 132.092 20.0561C131.799 20.6004 131.652 21.2283 131.652 21.94C131.652 22.6307 131.788 23.2483 132.06 23.7925C132.353 24.3367 132.761 24.7659 133.285 25.0799C133.808 25.3938 134.394 25.5508 135.044 25.5508Z" fill="#8D95A8"/>
<path d="M148.065 29.6018C148.945 29.8321 149.834 29.9471 150.734 29.9471C152.639 29.9471 154.146 29.5076 155.255 28.6284C156.385 27.7493 156.95 26.5666 156.95 25.0804C156.95 24.1175 156.773 23.343 156.417 22.7569C156.061 22.1499 155.601 21.6684 155.036 21.3126C154.47 20.9567 153.873 20.6741 153.246 20.4648C152.618 20.2555 152.021 20.0775 151.456 19.931C150.891 19.7845 150.431 19.617 150.074 19.4286C149.719 19.2402 149.541 18.989 149.541 18.6751C149.541 18.382 149.677 18.1622 149.949 18.0156C150.221 17.8482 150.629 17.7646 151.173 17.7646C151.739 17.7646 152.314 17.8796 152.9 18.1099C153.507 18.3401 154.051 18.7379 154.533 19.3031L157.264 16.54C156.574 15.6608 155.674 15.0014 154.564 14.5619C153.476 14.1014 152.283 13.8711 150.985 13.8711C149.75 13.8711 148.672 14.0804 147.751 14.499C146.83 14.9177 146.118 15.4934 145.616 16.2259C145.114 16.9376 144.862 17.7854 144.862 18.7693C144.862 19.6903 145.041 20.4544 145.396 21.0614C145.751 21.6474 146.213 22.108 146.777 22.4429C147.343 22.7778 147.94 23.0395 148.567 23.2278C149.195 23.4162 149.792 23.5942 150.357 23.7617C150.922 23.9082 151.383 24.0861 151.739 24.2954C152.116 24.4839 152.304 24.7664 152.304 25.1432C152.304 25.4362 152.147 25.6664 151.833 25.834C151.54 26.0014 151.111 26.0852 150.546 26.0852C149.729 26.0852 148.975 25.9386 148.285 25.6455C147.594 25.3316 146.997 24.9025 146.495 24.3582L143.763 27.1213C144.287 27.6864 144.915 28.1889 145.648 28.6284C146.401 29.047 147.207 29.3715 148.065 29.6018Z" fill="#8D95A8"/>
<path d="M165.711 29.9136C164.309 29.9136 163.063 29.6311 161.975 29.0659C160.907 28.4798 160.07 27.6843 159.463 26.6796C158.855 25.6539 158.552 24.4818 158.552 23.1629V14.3086H163.356V23.1002C163.356 23.6234 163.44 24.0735 163.608 24.4503C163.796 24.8271 164.068 25.1202 164.424 25.3295C164.78 25.5388 165.209 25.6434 165.711 25.6434C166.423 25.6434 166.988 25.4236 167.407 24.984C167.826 24.5235 168.035 23.8956 168.035 23.1002V14.3086H172.839V23.1316C172.839 24.4713 172.536 25.6539 171.928 26.6796C171.321 27.6843 170.484 28.4798 169.416 29.0659C168.349 29.6311 167.114 29.9136 165.711 29.9136Z" fill="#8D95A8"/>
<path d="M180.031 14.3102H175.227V29.5699H180.031V20.6526C180.031 20.1294 180.136 19.6898 180.345 19.3339C180.575 18.9781 180.879 18.7059 181.255 18.5176C181.633 18.3082 182.061 18.2035 182.543 18.2035C183.234 18.2035 183.809 18.4233 184.269 18.8629C184.751 19.2815 184.992 19.8782 184.992 20.6526V29.5699H189.796V20.6526C189.796 20.1294 189.901 19.6898 190.11 19.3339C190.341 18.9781 190.644 18.7059 191.021 18.5176C191.397 18.3082 191.827 18.2035 192.308 18.2035C192.999 18.2035 193.574 18.4233 194.035 18.8629C194.516 19.2815 194.756 19.8782 194.756 20.6526V29.5699H199.561V20.1189C199.561 18.842 199.289 17.7535 198.745 16.8534C198.221 15.9323 197.499 15.2311 196.578 14.7498C195.678 14.2473 194.642 13.9961 193.469 13.9961C192.276 13.9961 191.198 14.2578 190.236 14.7811C189.61 15.1145 189.063 15.5448 188.595 16.0719C188.158 15.5205 187.628 15.0694 187.001 14.7183C186.164 14.2369 185.212 13.9961 184.145 13.9961C183.014 13.9961 181.999 14.2369 181.099 14.7183C180.707 14.9186 180.351 15.1585 180.031 15.438V14.3102Z" fill="#8D95A8"/>
</g>
<defs>
<clipPath id="clip0_19_99">
<rect width="200" height="39.604" fill="white"/>
</clipPath>
</defs>
</svg>
