<svg width="200" height="52" viewBox="0 0 200 52" fill="none" xmlns="http://www.w3.org/2000/svg">
<path d="M37.0675 21.7422C40.9178 21.7422 41.784 23.4146 41.784 25.5005C41.784 27.7115 40.7362 29.2956 37.0834 29.2956C33.454 29.2956 32.4049 27.8035 32.4049 25.5005C32.4049 23.2342 33.5485 21.7422 37.0675 21.7422Z" fill="#8D95A8"/>
<path d="M77.3055 21.7422C81.1558 21.7422 82.0221 23.4146 82.0221 25.5005C82.0221 27.7115 80.973 29.2956 77.3215 29.2956C73.6933 29.2956 72.6429 27.8035 72.6429 25.5005C72.6429 23.2342 73.7865 21.7422 77.3055 21.7422Z" fill="#8D95A8"/>
<path fill-rule="evenodd" clip-rule="evenodd" d="M2.97762 47.2389V3.73828H197.552V47.2389H2.97762ZM95.7114 44.7849H195.098V6.19227H95.7114V44.7849ZM37.0859 32.9972C43.9215 32.9972 46.7951 30.0487 46.7951 25.4438C46.7951 20.764 43.5583 17.9825 37.0859 17.9825C30.7129 17.9825 27.3583 21.0033 27.3583 25.4438C27.3583 30.4548 30.8773 32.9972 37.0859 32.9972ZM13.3202 18.3137V32.7763H27.1166V28.9248H18.3117V18.3137H13.3202ZM62.2356 32.7763L62.1067 31.3751C60.4369 32.5667 58.4045 33.1402 56.3583 32.9972C53.2822 32.9972 50.7202 32.0757 49.2834 30.2156C48.3357 28.8575 47.8572 27.2274 47.9202 25.5726C47.8664 23.9526 48.3615 22.362 49.3252 21.0585C50.7791 19.2536 53.4147 18.0561 57.3386 18.0561C61.8528 18.0561 64.5055 19.4377 65.6466 21.7591C65.8915 22.3059 66.0355 22.8924 66.0712 23.4904H61.2957C61.1753 23.127 60.9514 22.8067 60.6515 22.569C59.7002 21.9383 58.5643 21.6466 57.427 21.7407C56.7599 21.6599 56.0831 21.7215 55.4416 21.9216C54.8001 22.1217 54.2083 22.4557 53.7055 22.9015C53.1345 23.6831 52.8664 24.6453 52.9509 25.6094C52.8847 26.5293 53.1312 27.4447 53.6503 28.207C54.1577 28.6798 54.7609 29.0378 55.4188 29.2572C56.0768 29.4764 56.7741 29.5519 57.4638 29.4782C58.8335 29.5896 60.1934 29.1671 61.2589 28.299C61.4877 28.0129 61.6455 27.6764 61.719 27.3174H56.5804V24.2095H66.1963V32.7763H62.2356ZM77.3239 32.9972C84.1583 32.9972 87.0331 30.0487 87.0331 25.4438C87.0331 20.764 83.7913 17.9825 77.3239 17.9825C70.9509 17.9825 67.5963 21.0033 67.5963 25.4438C67.5963 30.4548 71.1153 32.9972 77.3239 32.9972Z" fill="#8D95A8"/>
<path d="M104.119 32.7204V18.2578H107.677V32.7204H104.119Z" fill="#8D95A8"/>
<path d="M125.95 26.6782C125.048 27.8574 123.496 28.396 121.308 28.4095C120.847 28.4095 114.73 28.3911 114.73 28.3911V32.7212H111.248V18.2586H121.309C122.116 18.1733 122.931 18.2588 123.702 18.5095C124.474 18.7603 125.183 19.1706 125.785 19.7138C126.58 20.7496 126.967 22.0412 126.872 23.3432C126.953 24.5275 126.628 25.7041 125.95 26.6782ZM123.094 21.9629C122.726 21.4107 121.933 21.104 120.589 21.104H114.712V25.5064H120.551C121.988 25.5064 122.745 25.212 123.094 24.6402C123.302 24.2374 123.391 23.7837 123.352 23.3322C123.383 22.8613 123.294 22.3902 123.094 21.9629Z" fill="#8D95A8"/>
<path d="M137.134 32.9434C130.574 32.9434 128.567 30.4894 128.567 28.0611H132.288C132.288 29.2587 133.928 30.1618 137.299 30.1618C140.652 30.1618 141.536 29.5716 141.536 28.6133C141.536 27.5446 140.874 27.2133 137.76 26.8636C137.146 26.8084 135.476 26.6059 134.849 26.5139C130.432 26.0157 128.731 24.7078 128.731 22.3679C128.731 19.8992 131.22 18.0391 136.617 18.0391C142.476 18.0391 144.724 20.3421 144.724 22.7372H141.043C141.043 21.5213 139.661 20.8207 136.4 20.8207C133.047 20.8207 132.329 21.2808 132.329 22.1838C132.329 23.1237 133.065 23.4182 136.623 23.8415C137.434 23.9532 139.239 24.1556 139.736 24.2096C143.496 24.5961 145.19 25.9593 145.19 28.3728C145.184 31.2477 142.605 32.9434 137.134 32.9434Z" fill="#8D95A8"/>
<path d="M155.669 32.9228C150.861 32.9228 147.729 31.0247 147.729 27.0333V18.2578H151.247V27.0824C151.247 28.9069 152.74 30.1216 155.816 30.1216C158.598 30.1216 160.256 28.9805 160.256 27.0824V18.2578H163.739V27.3609C163.739 30.9891 160.827 32.9228 155.669 32.9228Z" fill="#8D95A8"/>
<path d="M182.806 32.7204V23.0664L178.292 32.7204H174.866L170.481 23.0664V32.7204H167.168V18.2578H171.656L176.631 29.275L181.715 18.2578H186.132V32.7204H182.806Z" fill="#8D95A8"/>
</svg>
